<?xml version="1.0" encoding="iso-8859-1"?>
<!-- Generator: Adobe Illustrator 19.0.0, SVG Export Plug-In . SVG Version: 6.00 Build 0)  -->
<svg version="1.1" id="Capa_1" xmlns="http://www.w3.org/2000/svg" xmlns:xlink="http://www.w3.org/1999/xlink" x="0px" y="0px"
	 viewBox="0 0 509.489 509.489" style="enable-background:new 0 0 509.489 509.489;" xml:space="preserve">
<g transform="matrix(1.25 0 0 -1.25 0 45)">
	<g>
		<g>
			<g>
				<path style="fill:#3E721D;" d="M193.169-212.299c0,0,22.039-89.577,13.505-106.644c-27.011-53.999-13.505-52.645,0-52.645
					h26.999c26.999,0-13.505,159.289-13.505,159.289H193.169z"/>
				<path style="fill:#3E721D;" d="M51.8-182.569c0,0-4.961-90.943-13.505-108.009c-26.999-54.01-26.999-81.01-13.494-81.01H51.8
					c13.505,0,13.505,47.252,13.505,60.757c0,13.494,13.494,97.883,13.494,97.883L51.8-182.569z"/>
			</g>
			<path style="fill:#77B255;" d="M132.798-21.733c-23.529-0.205-47.889,4.949-62.839-23.882
				c-15.974-30.822-23.495-97.61,8.841-109.955c28.194-10.763,90.26,13.505,157.753-13.494
				c67.504-26.999,94.504-189.008,148.093-189.224c13.915-0.046,13.71-12.777,0-12.88c-67.288-0.512-96.814,67.095-108.191,67.095
				c0,0,11.378-67.516,0-67.516h-45.511c-11.378,0,0,35.055,0,48.549v18.967c0,0-18.125-13.858-67.55-13.858
				c-37.342,0-68.983,13.858-68.983,13.858s11.378-67.516,0-67.516H51.8c-19.092,0,1.877,45.659,0,67.504
				c-1.161,13.449-5.814,54.124-13.926,67.504C18.236-204.176,6.437-105.485,15.926-62.659C24.812-22.541,51.447,12.81,69.117,22.8
				c17.283,9.762,32.563,17.055,70.428,10.98c20.196-3.243,40.858-33.246,32.893-48.629
				C167.649-24.077,150.366-21.585,132.798-21.733"/>
			<path d="M139.545,13.197c0-3.732-3.015-6.747-6.747-6.747c-3.732,0-6.758,3.015-6.758,6.747s3.026,6.747,6.758,6.747
				C136.53,19.944,139.545,16.929,139.545,13.197"/>
			<g>
				<path style="fill:#5C913B;" d="M108.268-172.307c1.07-3.459-0.865-7.122-4.324-8.192c-3.447-1.07-7.122,0.865-8.192,4.312
					c-1.07,3.459,0.865,7.134,4.324,8.203C103.523-166.913,107.198-168.848,108.268-172.307"/>
				<path style="fill:#5C913B;" d="M152.323-186.506c1.525-4.915-1.229-10.138-6.155-11.662c-4.915-1.525-10.138,1.229-11.662,6.144
					c-1.525,4.927,1.229,10.149,6.155,11.674C145.576-178.837,150.798-181.591,152.323-186.506"/>
				<path style="fill:#5C913B;" d="M133.857-170.281c0.808-2.617-0.649-5.393-3.277-6.201c-2.617-0.819-5.393,0.649-6.201,3.265
					c-0.808,2.617,0.66,5.393,3.265,6.212C130.273-166.197,133.049-167.664,133.857-170.281"/>
				<path style="fill:#5C913B;" d="M161.823-166.561c0.762-2.469-0.614-5.097-3.095-5.871c-2.469-0.762-5.097,0.626-5.871,3.095
					c-0.762,2.48,0.626,5.097,3.095,5.871C158.433-162.704,161.061-164.092,161.823-166.561"/>
				<path style="fill:#5C913B;" d="M194.17-170.497c1.422-4.574-1.149-9.432-5.723-10.854c-4.574-1.411-9.432,1.149-10.843,5.723
					c-1.422,4.574,1.138,9.432,5.712,10.854C187.89-163.364,192.748-165.924,194.17-170.497"/>
			</g>
			<path id="SVGCleanerId_0" style="fill:#5C913B;" d="M248.249-193.014c0.91-2.924-0.728-6.042-3.664-6.94
				c-2.924-0.91-6.03,0.728-6.94,3.652c-0.91,2.935,0.728,6.042,3.664,6.952C244.232-188.44,247.339-190.09,248.249-193.014"/>
			<g transform="translate(-5.854)">
				<path id="SVGCleanerId_0_1_" style="fill:#5C913B;" d="M181.643-193.014c0.91-2.924-0.728-6.042-3.664-6.94
					c-2.924-0.91-6.03,0.728-6.94,3.652c-0.91,2.935,0.728,6.042,3.664,6.952C177.627-188.44,180.733-190.09,181.643-193.014"/>
			</g>
			<g>
				<path style="fill:#5C913B;" d="M229.635-178.166c0.91-2.924-0.728-6.042-3.664-6.94c-2.924-0.91-6.03,0.728-6.94,3.652
					c-0.91,2.935,0.728,6.042,3.664,6.952C225.618-173.604,228.724-175.242,229.635-178.166"/>
				<path style="fill:#5C913B;" d="M212.557-180.419c1.343-4.335-1.081-8.932-5.416-10.274c-4.335-1.343-8.943,1.081-10.286,5.416
					c-1.331,4.335,1.092,8.932,5.427,10.274C206.617-173.66,211.214-176.084,212.557-180.419"/>
			</g>
		</g>
	</g>
</g>
<g>
</g>
<g>
</g>
<g>
</g>
<g>
</g>
<g>
</g>
<g>
</g>
<g>
</g>
<g>
</g>
<g>
</g>
<g>
</g>
<g>
</g>
<g>
</g>
<g>
</g>
<g>
</g>
<g>
</g>
</svg>
